<!DOCTYPE svg PUBLIC "-//W3C//DTD SVG 1.1//EN" "http://www.w3.org/Graphics/SVG/1.1/DTD/svg11.dtd">
<!-- Uploaded to: SVG Repo, www.svgrepo.com, Transformed by: SVG Repo Mixer Tools -->
<svg width="64px" height="64px" viewBox="0 0 20.24 20.24" xmlns="http://www.w3.org/2000/svg" fill="#000000" transform="matrix(1, 0, 0, 1, 0, 0)rotate(0)">
<g id="SVGRepo_bgCarrier" stroke-width="0"/>
<g id="SVGRepo_tracerCarrier" stroke-linecap="round" stroke-linejoin="round" stroke="#CCCCCC" stroke-width="1.0929600000000002"/>
<g id="SVGRepo_iconCarrier"> <g id="eraser-3" transform="translate(-1.881 -1.881)"> <path id="secondary" fill="#ea99d1" d="M6.83,10.1l6.81-6.81a1,1,0,0,1,1.41,0L20.71,9a1,1,0,0,1,0,1.41l-6.82,6.81Z"/> <path id="primary" d="M10.36,20.71a1,1,0,0,1-1.41,0L3.29,15.05a1,1,0,0,1,0-1.41L13.64,3.29a1,1,0,0,1,1.41,0L20.71,9a1,1,0,0,1,0,1.41ZM3.29,13.64,6.83,10.1l7.06,7.07-3.53,3.54a1,1,0,0,1-1.41,0L3.29,15.05A1,1,0,0,1,3.29,13.64ZM10,21h8" fill="none" stroke="#000000" stroke-linecap="round" stroke-linejoin="round" stroke-width="1.012"/> </g> </g>
</svg>